# xmcd
# 
# Track frame offsets:
#     150
#     8772
#     32667
#     42167
#     57492
#     81250
#     91045
#     108247
#     118132
#     127250
#     143825
#     150517
#     164160
#     186635
#     198382
#     211442
# 
# Disc length: 2982
# 
# Revision: 3
# Processed by: cddbd v1.5.2PL0 Copyright (c) Steve Scherf et al.
# Submitted via: BonkEnc v1.0
# 
DISCID=e50ba410
DTITLE=ザ フォーク クルセーダース - 当世今様民謡大温習会
DYEAR=0
DGENRE=Folk
TTITLE0=フォークル・ハレンチ口上
TTITLE1=フォークル節
TTITLE2=ゲ・ゲ・ゲの鬼太郎
TTITLE3=大統領様
TTITLE4=からっぽの世界
TTITLE5=雨の糸
TTITLE6=戦争は知らない
TTITLE7=帰って来たヨッパライ
TTITLE8=蛇に喰われて死んでいく男の悲しい悲しい物語
TTITLE9=きつね
TTITLE10=たぬき(世界は二人のために)
TTITLE11=カエルの恋
TTITLE12=中国手品
TTITLE13=女の子は強い(マン・スマート)
TTITLE14=こきりこの唄
TTITLE15=悲しくてやりきれない
EXTD=
EXTT0=
EXTT1=
EXTT2=
EXTT3=
EXTT4=
EXTT5=
EXTT6=
EXTT7=
EXTT8=
EXTT9=
EXTT10=
EXTT11=
EXTT12=
EXTT13=
EXTT14=
EXTT15=
PLAYORDER=
